<svg xmlns="http://www.w3.org/2000/svg" version="1.1" viewBox="3.0965657234191895 1.7092081308364868 543.61962890625 674.8313598632812" width="549.00" height="679.00">
<path fill="#020102" d="&#10;  M 292.31 515.22&#10;  A 0.56 0.56 0.0 0 0 291.80 516.07&#10;  C 294.24 520.08 295.54 523.79 296.17 528.28&#10;  Q 298.20 542.77 300.49 549.06&#10;  Q 303.67 557.78 306.89 567.51&#10;  Q 307.83 570.37 308.90 572.42&#10;  Q 310.13 574.78 311.49 577.17&#10;  Q 312.70 579.30 312.98 580.73&#10;  C 313.33 582.50 313.36 583.88 314.27 585.72&#10;  Q 325.05 607.51 338.86 628.74&#10;  Q 339.88 630.30 345.66 637.03&#10;  Q 347.99 639.74 350.97 644.30&#10;  Q 354.13 649.11 358.92 654.08&#10;  Q 363.59 658.94 372.89 668.39&#10;  C 374.84 670.38 377.83 672.70 379.88 675.13&#10;  Q 381.09 676.57 379.21 676.54&#10;  Q 355.25 676.16 331.49 676.30&#10;  Q 319.08 676.38 311.49 676.34&#10;  Q 259.04 676.11 230.00 675.86&#10;  Q 222.57 675.80 210.00 676.11&#10;  Q 198.08 676.41 178.04 676.27&#10;  Q 175.23 676.25 173.94 675.94&#10;  A 1.33 1.31 -8.6 0 1 173.14 675.36&#10;  C 172.18 673.81 172.51 672.37 174.04 671.17&#10;  Q 177.53 668.44 181.14 664.38&#10;  Q 192.08 652.04 194.36 649.37&#10;  Q 210.23 630.75 220.46 613.98&#10;  Q 230.93 596.84 238.54 577.80&#10;  Q 247.23 556.06 250.74 545.23&#10;  Q 251.04 544.29 253.58 534.15&#10;  C 254.45 530.63 254.38 525.31 256.41 521.66&#10;  Q 257.56 519.59 257.87 518.42&#10;  Q 258.61 515.67 256.39 517.45&#10;  Q 252.69 520.39 251.92 520.89&#10;  Q 243.04 526.63 234.37 531.67&#10;  Q 231.94 533.07 229.89 533.98&#10;  Q 229.80 534.02 225.17 535.82&#10;  Q 202.20 544.77 190.93 548.70&#10;  Q 183.68 551.23 177.42 552.34&#10;  Q 167.97 554.01 153.57 554.12&#10;  Q 135.17 554.25 125.07 553.42&#10;  Q 112.70 552.40 101.93 549.00&#10;  Q 95.17 546.86 75.02 539.05&#10;  Q 68.39 536.48 65.00 534.00&#10;  Q 51.71 524.27 45.35 518.90&#10;  C 37.17 511.99 29.26 502.55 23.92 492.38&#10;  C 22.47 489.61 21.07 486.43 19.00 484.00&#10;  C 17.76 482.55 17.06 482.07 16.79 480.46&#10;  Q 15.44 472.51 14.15 468.63&#10;  Q 10.25 456.93 7.06 442.86&#10;  Q 4.25 430.45 3.68 423.12&#10;  Q 2.92 413.44 3.15 398.63&#10;  Q 3.29 389.81 5.56 378.78&#10;  Q 9.95 357.38 16.85 338.58&#10;  Q 20.13 329.65 23.97 323.21&#10;  Q 27.50 317.30 28.95 314.42&#10;  Q 33.13 306.12 41.06 293.97&#10;  Q 45.47 287.21 52.82 277.81&#10;  Q 72.65 252.47 84.79 239.04&#10;  Q 87.30 236.27 115.52 206.41&#10;  Q 121.82 199.75 129.08 191.73&#10;  Q 135.72 184.40 140.35 179.73&#10;  Q 146.48 173.56 151.54 167.70&#10;  Q 163.48 153.87 183.88 131.63&#10;  Q 190.03 124.92 200.34 112.52&#10;  Q 205.59 106.21 209.93 99.87&#10;  Q 211.88 97.02 216.10 91.25&#10;  Q 219.93 86.01 222.13 82.55&#10;  Q 227.87 73.53 236.35 60.66&#10;  Q 238.04 58.09 245.02 47.23&#10;  Q 256.21 29.81 270.27 8.44&#10;  C 271.66 6.32 272.32 4.69 273.29 2.13&#10;  A 0.65 0.65 0.0 0 1 274.47 2.05&#10;  Q 276.55 5.88 278.43 8.55&#10;  Q 281.49 12.90 281.55 12.99&#10;  Q 283.47 15.87 291.36 27.63&#10;  Q 296.35 35.06 300.80 42.55&#10;  Q 314.42 65.45 325.16 80.54&#10;  Q 337.08 97.29 346.02 108.74&#10;  Q 355.17 120.46 365.35 131.87&#10;  C 367.66 134.47 369.19 136.72 371.77 140.27&#10;  Q 373.53 142.69 375.24 144.03&#10;  C 377.01 145.42 378.37 146.41 379.85 148.46&#10;  Q 382.24 151.77 386.37 156.15&#10;  Q 388.68 158.60 396.10 166.75&#10;  Q 397.19 167.94 404.24 175.93&#10;  Q 406.64 178.65 411.60 183.80&#10;  Q 415.02 187.34 418.17 190.93&#10;  Q 426.94 200.92 431.69 205.64&#10;  Q 454.72 228.52 458.83 233.25&#10;  Q 468.70 244.60 474.69 251.00&#10;  Q 475.03 251.36 475.49 251.38&#10;  L 475.84 251.40&#10;  Q 476.43 251.43 476.87 251.97&#10;  Q 478.08 253.49 478.73 255.66&#10;  Q 479.05 256.74 481.37 258.74&#10;  Q 482.76 259.94 484.21 261.70&#10;  Q 491.83 270.96 497.79 278.46&#10;  Q 498.23 279.00 504.31 285.73&#10;  Q 505.03 286.52 505.29 286.96&#10;  L 505.43 288.06&#10;  Q 505.79 290.96 506.89 292.36&#10;  Q 512.37 299.29 516.48 306.72&#10;  Q 524.57 321.33 528.20 328.26&#10;  Q 535.92 342.99 538.94 355.37&#10;  Q 542.67 370.59 545.06 385.02&#10;  Q 547.90 402.20 545.87 419.30&#10;  Q 544.47 431.18 543.63 436.78&#10;  Q 541.72 449.58 537.50 463.03&#10;  Q 534.77 471.71 533.25 475.82&#10;  Q 530.67 482.78 527.62 488.17&#10;  Q 524.81 493.14 522.58 496.64&#10;  Q 513.30 511.21 500.87 521.37&#10;  Q 491.21 529.28 484.87 533.87&#10;  Q 482.90 535.29 479.89 536.56&#10;  Q 470.35 540.57 450.75 548.49&#10;  Q 447.11 549.96 441.29 551.67&#10;  Q 436.46 553.09 431.53 553.39&#10;  Q 407.80 554.83 385.51 553.32&#10;  Q 376.15 552.69 365.34 550.41&#10;  Q 363.20 549.96 346.05 544.61&#10;  Q 346.00 544.60 336.39 540.86&#10;  Q 329.88 538.34 325.01 537.22&#10;  Q 320.16 536.10 314.45 532.05&#10;  Q 307.31 527.00 293.31 515.69&#10;  Q 292.74 515.24 292.31 515.22&#10;  Z"/>
</svg>